<svg xmlns="http://www.w3.org/2000/svg" viewBox="0 0 247.92 283.46"><defs><style>.cls-1{fill:#fff;}</style></defs><g id="Layer_2" data-name="Layer 2"><g id="Layer_1-2" data-name="Layer 1"><path class="cls-1" d="M124,70.78H226.09c4.28,0,4.3,0,4.3,4.23q0,90.43,0,180.89c0,13.92-8.44,24.61-21.33,27.16a26.83,26.83,0,0,1-5.15.38q-79.44,0-158.88,0c-16.26,0-27.46-11.18-27.47-27.55q0-86.88,0-173.76c0-2.59.17-5.2,0-7.77-.25-2.9.86-3.66,3.68-3.65,22.37.11,44.74.06,67.11.06Zm62.2,106.35h0v-59c0-1.19,0-2.38-.07-3.56a8.82,8.82,0,0,0-8.77-8.3,8.67,8.67,0,0,0-8.82,7.82,31,31,0,0,0-.27,4.52q0,58.66,0,117.32a28.73,28.73,0,0,0,.4,5.16A8.43,8.43,0,0,0,178.1,248c5.14-.55,8.05-4.18,8.05-10.29Q186.2,207.43,186.16,177.13Zm-124.4.17h0q0,29.82,0,59.64a19.28,19.28,0,0,0,.48,4.8,8.5,8.5,0,0,0,9,6.35,8.36,8.36,0,0,0,8-7.16,33.52,33.52,0,0,0,.39-5.48q0-58.5,0-117a28.83,28.83,0,0,0-.32-4.83,8.57,8.57,0,0,0-10.2-7.17c-4.62.75-7.38,4.38-7.39,9.93Q61.73,146.84,61.76,177.3Zm53.16-.5V192c0,15.35,0,30.69,0,46,0,5.22,2.57,8.75,6.86,9.75,6.23,1.46,11.15-2.84,11.16-9.93q0-38.73,0-77.47c0-14.7,0-29.39,0-44.09,0-5.86-3.62-9.9-8.78-10s-9.23,4-9.24,9.9C114.9,136.39,114.93,156.59,114.92,176.8Z"/><path class="cls-1" d="M123.62,52.78H12.08c-1.51,0-3,0-4.54-.11A7.9,7.9,0,0,1,.07,44.76C0,38.82,0,32.88,0,26.93s3.28-9.35,9.45-9.37c16.64,0,33.29,0,49.93,0,4.33,0,8.65-.08,13,0a3.73,3.73,0,0,0,4-2.47C77.62,12.35,79,9.64,80.47,7c2.59-4.59,6.42-7,11.88-7Q124,.12,155.58,0c5.46,0,9.29,2.4,11.89,7a65.26,65.26,0,0,1,3.78,7.52c1,2.38,2.44,3.08,4.95,3.07,20.32-.1,40.64-.07,61,0a16.65,16.65,0,0,1,4.79.51A7.71,7.71,0,0,1,247.86,26q.12,9.24,0,18.48c-.06,4.73-3.14,7.89-7.83,8.22-1.3.1-2.6.08-3.89.08Z"/></g></g></svg>