<svg xmlns="http://www.w3.org/2000/svg" viewBox="0 0 378.31 283.46"><defs><style>.cls-1{fill:#fff;}</style></defs><g id="Layer_2" data-name="Layer 2"><g id="Layer_1-2" data-name="Layer 1"><path class="cls-1" d="M194.25,283.41q-84,0-168,0c-10.59,0-19-3.62-23.59-13.38A29.23,29.23,0,0,1,.11,258Q-.1,136,0,14.09C0,4.91,4.66.23,13.79.09,20,0,26.17,0,32.36.06c10.69,0,15,4.27,15,14.94q0,67.13,0,134.26,0,40.78,0,81.59c0,5.61,0,5.63,5.77,5.63H362.27c12.08,0,16,3.94,16,16q0,7.77,0,15.54c0,11.44-3.91,15.4-15.22,15.4Z"/><path class="cls-1" d="M354.36,94.9q0,40.59,0,81.16c0,9.49-3.51,12.95-13,13-7.48,0-15,.06-22.45,0-7.68-.09-11.44-3.8-11.44-11.47q-.06-82.89,0-165.78c0-7.6,3.75-11.49,11.33-11.65,7.91-.16,15.83-.11,23.75,0C350.8.2,354.34,3.75,354.35,12Q354.41,53.47,354.36,94.9Z"/><path class="cls-1" d="M212.55,106.55q0,35.17,0,70.34c0,8.51-3.53,12.08-12,12.14q-11.43.06-22.87,0c-8.38,0-11.9-3.5-11.91-11.72q0-71,0-142c0-7.79,3.55-11.36,11.3-11.43,8.2-.07,16.4-.09,24.6,0,7.17.09,10.84,3.82,10.86,11Q212.59,70.74,212.55,106.55Z"/><path class="cls-1" d="M283.53,130.23c0,15.55,0,31.09,0,46.64,0,8.44-3.67,12.08-12.07,12.14-7.63.05-15.26.07-22.89,0-8.2-.05-11.95-3.75-12-11.88q0-47.07,0-94.13c0-7.92,4-12,11.93-12.1,7.78-.11,15.55-.12,23.32,0S283.48,75,283.51,82.74C283.57,98.57,283.53,114.4,283.53,130.23Z"/><path class="cls-1" d="M94.77,153.49c0-7.9-.06-15.8,0-23.7.08-7.5,4-11.44,11.46-11.52q12.06-.13,24.14,0c7.18.09,11.26,4.13,11.29,11.26q.1,24.13,0,48.27c0,7.15-3.74,11-10.82,11.15-8.33.17-16.67.16-25,0-7.31-.11-11-3.93-11.07-11.37C94.71,169.58,94.77,161.54,94.77,153.49Z"/></g></g></svg>