<svg xmlns="http://www.w3.org/2000/svg" viewBox="0 0 283.66 283.46"><defs><style>.cls-1{fill:#fff;}</style></defs><g id="Layer_2" data-name="Layer 2"><g id="Layer_1-2" data-name="Layer 1"><path class="cls-1" d="M232.1,123.12a22.17,22.17,0,0,0-3.18,2.18q-74.29,74.18-148.6,148.32a10.75,10.75,0,0,1-5.76,3C54.5,279,34.4,281.2,14.31,283.39,7.6,284.12-.75,279.18.05,270q1.27-14.53,2.84-29,1.74-16.44,3.78-32.85a7.64,7.64,0,0,1,2-4.17q75-75.09,150.06-150.08c1.62-1.62,2.64-1.94,4.43-.15q33.44,33.58,67,67C230.59,121.19,231,121.72,232.1,123.12Z"/><path class="cls-1" d="M244.51,109.31c-.88-.81-1.69-1.51-2.44-2.26q-32.72-32.68-65.48-65.34c-2.38-2.36-2.29-3.62,0-5.88,9.25-9,18.51-17.92,27.35-27.27,11-11.64,28.89-11.26,39.84.25,10.28,10.81,21,21.19,31.56,31.77,10.89,10.94,11.09,26.74.31,37.76-9.6,9.82-19.39,19.47-29.11,29.18C246,108.12,245.3,108.63,244.51,109.31Z"/></g></g></svg>